<svg width="428" height="148" viewBox="0 0 428 148" fill="none" xmlns="http://www.w3.org/2000/svg">
<path d="M98.61 95.72C94.1265 100.79 88.206 104.376 81.6355 106.001C75.065 107.625 68.1556 107.211 61.826 104.814C55.4963 102.417 50.0462 98.1501 46.2 92.5807C42.3539 87.0114 40.2938 80.4033 40.2938 73.635C40.2938 66.8666 42.3539 60.2586 46.2 54.6893C50.0462 49.1199 55.4963 44.8531 61.826 42.456C68.1556 40.0589 75.065 39.645 81.6355 41.2694C88.206 42.8939 94.1265 46.4796 98.61 51.55L128.61 21.55H95.2L73.63 0L52.06 21.56H21.55V52.06L0 73.63L21.55 95.2V125.7H52.06L73.63 147.27L95.2 125.7H128.55L98.61 95.72ZM21.61 89.44L7.79 75.67H21.55L21.61 89.44ZM21.55 71.56H7.79L21.55 57.83V71.56ZM75.65 7.76L89.44 21.56H75.67L75.65 7.76ZM75.65 25.6H118.72L98.61 45.78C92.2814 40.0726 84.1808 36.718 75.67 36.28L75.65 25.6ZM71.55 7.8V21.56H57.82L71.55 7.8ZM71.55 25.64V36.28C63.0453 36.7353 54.9545 40.0958 48.63 45.8L28.55 25.64H71.55ZM25.64 28.56L45.79 48.67C40.1013 54.9915 36.7456 63.0685 36.28 71.56H25.64V28.56ZM25.64 75.71H36.28C36.7522 84.1881 40.1076 92.2503 45.79 98.56L25.64 118.75V75.71ZM71.64 139.51L57.82 125.7H71.55L71.64 139.51ZM71.64 121.67H28.55L48.7 101.51C55.0117 107.185 63.0747 110.53 71.55 110.99L71.64 121.67ZM75.72 139.51V125.7H89.49L75.72 139.51ZM75.72 121.67V110.99C84.2308 110.552 92.3314 107.197 98.66 101.49L118.79 121.63L75.72 121.67Z" fill="#DCA55E"/>
<path d="M199.92 109.91C197.04 117.6 190.71 122.41 181.38 122.41C169.57 122.41 161.49 113.93 161.49 101.41C161.49 88.89 169.68 80.41 181.67 80.41C191.11 80.41 197.38 84.99 200.04 93.35H195.8C193.99 88.27 189.52 83.8 181.61 83.8C171.83 83.8 165.9 90.98 165.9 101.38C165.9 111.78 171.83 119.02 181.67 119.02C189.67 119.02 193.59 114.38 195.67 109.91H199.92Z" fill="black"/>
<path d="M204.3 106.81C204.3 97.54 210.24 91.15 219.4 91.15C228.56 91.15 234.49 97.54 234.49 106.81C234.49 115.81 228.72 122.35 219.28 122.35C209.84 122.35 204.3 115.85 204.3 106.81ZM230.08 106.75C230.08 99.57 226.08 94.37 219.28 94.37C212.48 94.37 208.49 99.57 208.49 106.75C208.49 114.15 212.33 119.13 219.28 119.13C226.23 119.13 230.08 114.15 230.08 106.75Z" fill="black"/>
<path d="M259.23 104.43C259.23 97.25 256.18 94.37 251.6 94.37C246.45 94.37 243.6 98.61 243.6 103.58V121.58H239.55V96.46C239.55 94.94 239.55 93.46 239.5 91.94H243.55V96.35C244.527 94.7045 245.93 93.353 247.611 92.4379C249.291 91.5227 251.188 91.0778 253.1 91.15C257.68 91.15 260.79 93.07 262.31 96.86C263.376 95.0533 264.912 93.5686 266.753 92.5634C268.594 91.5582 270.674 91.0698 272.77 91.15C279.61 91.15 283.05 95.15 283.05 103.08V121.61H278.99V104.43C278.99 97.25 275.93 94.37 271.35 94.37C266.21 94.37 263.35 98.61 263.35 103.58V121.58H259.28L259.23 104.43Z" fill="black"/>
<path d="M310.21 104.43C310.21 97.25 307.15 94.37 302.57 94.37C297.43 94.37 294.57 98.61 294.57 103.58V121.58H290.5V96.46C290.5 94.94 290.5 93.46 290.44 91.94H294.51V96.35C295.489 94.706 296.892 93.3557 298.572 92.4407C300.252 91.5258 302.148 91.08 304.06 91.15C308.64 91.15 311.75 93.07 313.28 96.86C314.344 95.0533 315.877 93.5685 317.717 92.5632C319.557 91.5578 321.635 91.0695 323.73 91.15C330.57 91.15 334.02 95.15 334.02 103.08V121.61H329.95V104.43C329.95 97.25 326.9 94.37 322.32 94.37C317.18 94.37 314.32 98.61 314.32 103.58V121.58H310.25L310.21 104.43Z" fill="black"/>
<path d="M339.02 106.81C339.02 97.54 344.95 91.15 354.11 91.15C363.27 91.15 369.2 97.54 369.2 106.81C369.2 115.81 363.43 122.35 354 122.35C344.57 122.35 339.02 115.85 339.02 106.81ZM364.79 106.75C364.79 99.57 360.79 94.37 354 94.37C347.21 94.37 343.2 99.57 343.2 106.75C343.2 114.15 347.04 119.13 354 119.13C360.96 119.13 364.79 114.15 364.79 106.75Z" fill="black"/>
<path d="M374.22 96.46C374.22 94.94 374.22 93.46 374.16 91.94H378.23V96.35C379.53 93.98 382.52 91.15 387.89 91.15C394.73 91.15 398.46 95.15 398.46 103.08V121.61H394.39V104.43C394.39 97.37 391.12 94.37 386.54 94.37C381.39 94.37 378.28 98.61 378.28 103.58V121.58H374.22V96.46Z" fill="black"/>
<path d="M407.89 112.63C408.96 116.53 411.22 119.24 416.25 119.24C420.77 119.24 423.49 116.98 423.49 113.82C423.49 110.66 420.89 109.75 416.82 108.56L413.31 107.56C408.62 106.2 405.12 104.62 405.12 99.56C405.12 94.3 409.58 91.14 415.91 91.14C421.96 91.14 426.09 93.85 426.99 99.73H423.15C422.47 96.62 420.32 94.25 415.8 94.25C411.28 94.25 409.13 96.25 409.13 98.94C409.13 101.82 411.13 102.84 415.52 104.14L419.25 105.27C424.51 106.91 427.44 108.61 427.44 113.27C427.44 118.98 422.81 122.37 416.14 122.37C409.3 122.37 405.14 119.2 403.99 112.65L407.89 112.63Z" fill="black"/>
<path d="M166.06 54.56C166.97 60.44 170.64 63.49 176.91 63.49C183.02 63.49 186.75 60.49 186.75 55.69C186.75 50.69 182.11 49.13 177.03 47.33L174.55 46.5C167.94 44.41 163.36 41.13 163.36 35.19C163.36 29.09 168.36 24.85 176.7 24.85C184.89 24.85 189.41 28.92 190.26 36.1H186.31C185.46 30.9 182.18 28.1 176.53 28.1C170.88 28.1 167.65 30.64 167.65 34.71C167.65 39.29 171.05 40.82 176.53 42.79L179.64 43.92C185.97 46.19 191.11 48.62 191.11 55.06C191.11 62.3 185.23 66.82 176.81 66.82C168.39 66.82 162.95 62.72 161.88 54.56H166.06Z" fill="black"/>
<path d="M195.55 51.25C195.55 41.98 201.45 35.56 210.61 35.56C219.77 35.56 225.7 41.95 225.7 51.22C225.7 60.22 219.94 66.76 210.5 66.76C201.06 66.76 195.55 60.29 195.55 51.25ZM221.32 51.19C221.32 44.01 217.32 38.81 210.53 38.81C203.74 38.81 199.73 44.01 199.73 51.19C199.7 58.56 203.55 63.56 210.55 63.56C217.55 63.56 221.29 58.56 221.29 51.19H221.32Z" fill="black"/>
<path d="M254.74 61.56C254.74 63.09 254.74 64.56 254.8 66.09H250.73V61.65C249.769 63.2982 248.376 64.6531 246.702 65.5693C245.029 66.4855 243.137 66.9283 241.23 66.85C234.45 66.85 230.72 62.78 230.72 54.85V36.38H234.79V53.56C234.79 60.69 237.89 63.62 242.53 63.62C247.62 63.62 250.67 59.39 250.67 54.41V36.41H254.74V61.56Z" fill="black"/>
<path d="M260.36 39.38V36.38H264.94V29.44L269.01 28.35V36.35H274.67V39.35H269.01V59.16C269.01 62.16 270.43 63.4 273.2 63.4C273.501 63.4048 273.802 63.3847 274.1 63.34V66.56C273.592 66.6255 273.082 66.6623 272.57 66.67C267.83 66.67 264.94 64.92 264.94 59.27V39.38H260.36Z" fill="black"/>
<path d="M284.62 25.64V34.91C284.62 38.36 284.57 39.55 284.57 40.79C285.87 38.42 288.86 35.59 294.23 35.59C301.07 35.59 304.8 39.59 304.8 47.52V66.06H300.73V48.87C300.73 41.81 297.45 38.81 292.88 38.81C287.73 38.81 284.62 43.05 284.62 48.02V66.02H280.55V26.73L284.62 25.64Z" fill="black"/>
<path d="M326.48 25.64H337.48C340.87 25.64 343.98 25.98 346.41 27.28C349.63 28.92 351.78 31.97 351.78 37.17C351.78 41.24 350.31 44.29 347.65 46.17C345.16 48.17 341.49 48.94 337.14 48.94H330.69V66.06H326.51L326.48 25.64ZM330.66 45.48H337.33C342.99 45.48 347.33 43.22 347.33 37.17C347.33 31.8 343.88 29.09 337.04 29.09H330.71L330.66 45.48Z" fill="black"/>
<path d="M355.43 45.37C355.43 39.55 360.29 35.59 367.25 35.59C374.93 35.59 378.66 39.26 378.66 48.36C378.66 51.36 378.61 52.21 378.61 52.89V59.89C378.512 61.9626 378.7 64.039 379.17 66.06H375.39C375.03 64.4192 374.896 62.7371 374.99 61.06C373.12 64.45 369.73 66.66 364.25 66.66C358.37 66.66 354.08 63.55 354.08 58.24C354.08 52.41 359.45 50.49 366.68 49.3C368.43 49.02 372.56 48.51 374.76 48.23C374.76 41.39 372.45 38.79 367.08 38.79C361.71 38.79 359.73 41.51 359.45 45.35L355.43 45.37ZM374.88 51.25C371.32 51.64 369.34 51.93 367.25 52.32C361.82 53.39 358.43 54.32 358.43 58.14C358.43 61.76 361.14 63.74 365.43 63.74C371.36 63.74 374.81 60.06 374.81 52.89C374.799 52.3424 374.822 51.7946 374.88 51.25Z" fill="black"/>
<path d="M389.91 41.07C390.44 39.5102 391.444 38.1546 392.781 37.1921C394.118 36.2295 395.722 35.708 397.37 35.7C397.59 35.7 397.82 35.76 397.99 35.76H398.27V39.66C397.732 39.5401 397.181 39.4831 396.63 39.49C392.11 39.49 390.13 43.33 390.13 49.27V66.06H386.06V40.85C386.06 39.49 386.06 37.74 386 36.38H389.91V41.07Z" fill="black"/>
<path d="M421.13 66.06C419.04 63.85 415.7 60.06 412.82 56.73C411.12 54.86 409.37 52.89 407.56 50.79V66.06H403.56V26.72L407.56 25.64V49.64L412.56 44.44C415.28 41.56 418.44 38.34 420.31 36.36H425.45L411.75 50.06C413.39 51.93 421.86 60.63 426.61 66.06H421.13Z" fill="black"/>
</svg>
